<svg width="23" height="18" viewBox="0 0 23 18" fill="none" xmlns="http://www.w3.org/2000/svg">
<path d="M6.50024 0.75C6.50024 0.335786 6.83603 0 7.25024 0H15.7502C16.1645 0 16.5002 0.335786 16.5002 0.75C16.5002 1.16421 16.1645 1.5 15.7502 1.5H7.25024C6.83603 1.5 6.50024 1.16421 6.50024 0.75Z" fill="url(#paint0_linear_1226_993)"/>
<path d="M4.81641 8H18.1842C18.7789 7.99999 19.2725 7.99998 19.6723 8.03409C20.087 8.06947 20.476 8.146 20.835 8.3451C21.3814 8.64815 21.8084 9.12826 22.0455 9.70636C22.2013 10.0861 22.2318 10.4815 22.2185 10.8974C22.2057 11.2985 22.148 11.7887 22.0785 12.3793L21.8243 14.5398C21.7683 15.0157 21.7214 15.4151 21.6572 15.7409C21.59 16.0823 21.4942 16.3993 21.3116 16.6949C21.0296 17.1517 20.62 17.5159 20.1334 17.7426C19.8185 17.8894 19.4925 17.9475 19.1456 17.9744C18.8145 18 18.4123 18 17.933 18H5.06756C4.58826 18 4.18614 18 3.85505 17.9744C3.50815 17.9475 3.18211 17.8894 2.86716 17.7426C2.3806 17.5159 1.97104 17.1517 1.68899 16.6949C1.50642 16.3993 1.41064 16.0823 1.3434 15.7409C1.27923 15.4151 1.23226 15.0157 1.17627 14.5397L0.922106 12.3793C0.852608 11.7887 0.794928 11.2985 0.782091 10.8974C0.768775 10.4815 0.799333 10.0861 0.955119 9.70636C1.19225 9.12826 1.61919 8.64815 2.16562 8.3451C2.5246 8.146 2.91364 8.06947 3.32832 8.03409C3.72811 7.99998 4.22169 7.99999 4.81641 8Z" fill="url(#paint1_linear_1226_993)"/>
<path d="M16.5184 3C17.0067 2.99999 17.4128 2.99999 17.7444 3.02388C18.0885 3.04867 18.4132 3.10214 18.7232 3.24131C19.4018 3.54603 19.928 4.11265 20.1817 4.81191C20.2976 5.13128 20.3269 5.45906 20.3263 5.80403C20.3258 6.01309 20.3102 6.23959 20.2896 6.5H2.71092C2.69039 6.23959 2.67475 6.01308 2.67433 5.80403C2.67363 5.45906 2.70297 5.13129 2.81887 4.81191C3.07262 4.11265 3.59883 3.54603 4.27743 3.24131C4.58737 3.10214 4.91208 3.04867 5.25616 3.02388C5.58775 2.99999 5.9939 2.99999 6.48214 3H16.5184Z" fill="url(#paint2_linear_1226_993)"/>
<defs>
<linearGradient id="paint0_linear_1226_993" x1="0.779297" y1="18" x2="20.5982" y2="19.6381" gradientUnits="userSpaceOnUse">
<stop stop-color="#3E79F0"/>
<stop offset="1" stop-color="#27C6E5"/>
</linearGradient>
<linearGradient id="paint1_linear_1226_993" x1="0.779297" y1="18" x2="20.5982" y2="19.6381" gradientUnits="userSpaceOnUse">
<stop stop-color="#3E79F0"/>
<stop offset="1" stop-color="#27C6E5"/>
</linearGradient>
<linearGradient id="paint2_linear_1226_993" x1="0.779297" y1="18" x2="20.5982" y2="19.6381" gradientUnits="userSpaceOnUse">
<stop stop-color="#3E79F0"/>
<stop offset="1" stop-color="#27C6E5"/>
</linearGradient>
</defs>
</svg>
