<svg width="18" height="18" viewBox="0 0 18 18" fill="none" xmlns="http://www.w3.org/2000/svg">
  <path d="M9.75 0.75C9.75 0.335786 9.41422 0 9 0C8.58579 0 8.25 0.335786 8.25 0.75V12.4393L5.78033 9.96967C5.48744 9.67678 5.01257 9.67678 4.71967 9.96967C4.42678 10.2626 4.42678 10.7374 4.71967 11.0303L8.46967 14.7803C8.76257 15.0732 9.23744 15.0732 9.53033 14.7803L13.2803 11.0303C13.5732 10.7374 13.5732 10.2626 13.2803 9.96967C12.9874 9.67678 12.5126 9.67678 12.2197 9.96967L9.75 12.4393V0.75Z" fill="#080808" fill-opacity="0.96"/>
  <path d="M1.5 7.75C1.5 7.33579 1.16421 7 0.750001 7C0.335787 7 2.56452e-07 7.33579 2.56452e-07 7.75V13.2814C-8.2075e-06 13.9548 -1.51284e-05 14.5055 0.0365521 14.9531C0.074402 15.4163 0.155137 15.8347 0.35423 16.2255C0.665818 16.837 1.163 17.3342 1.77453 17.6458C2.16527 17.8449 2.58367 17.9256 3.04693 17.9634C3.49448 18 4.04515 18 4.71849 18H13.2814C13.9548 18 14.5055 18 14.9531 17.9634C15.4163 17.9256 15.8347 17.8449 16.2255 17.6458C16.837 17.3342 17.3342 16.837 17.6458 16.2255C17.8449 15.8347 17.9256 15.4163 17.9634 14.9531C18 14.5055 18 13.9548 18 13.2814V7.75C18 7.33579 17.6642 7 17.25 7C16.8358 7 16.5 7.33579 16.5 7.75V13.25C16.5 13.9624 16.4994 14.4517 16.4684 14.8309C16.4382 15.2014 16.3827 15.4004 16.3093 15.5445C16.1415 15.8738 15.8738 16.1415 15.5445 16.3093C15.4004 16.3827 15.2014 16.4382 14.8309 16.4684C14.4517 16.4994 13.9624 16.5 13.25 16.5H4.75C4.03756 16.5 3.54833 16.4994 3.16908 16.4684C2.79858 16.4382 2.59956 16.3827 2.45552 16.3093C2.12623 16.1415 1.85852 15.8738 1.69074 15.5445C1.61735 15.4004 1.56184 15.2014 1.53157 14.8309C1.50058 14.4517 1.5 13.9624 1.5 13.25V7.75Z" fill="#080808" fill-opacity="0.96"/>
</svg>
