<svg width="20" height="18" viewBox="0 0 20 18" fill="none" xmlns="http://www.w3.org/2000/svg">
<path fill-rule="evenodd" clip-rule="evenodd" d="M12.5001 2.81074C12.5 2.84871 12.5 2.88884 12.5 2.9313V5.37199C12.5 5.85069 12.1177 6.24177 11.6391 6.25264C6.60979 6.36695 2.48329 10.0463 1.65256 14.8429C2.35109 13.9963 3.11777 13.2097 4.08905 12.5641C5.69011 11.4999 7.77851 10.8562 10.9248 10.762L10.9452 10.7614C11.0638 10.7578 11.1955 10.7538 11.3107 10.7603C11.4441 10.7678 11.6153 10.791 11.794 10.8774C12.0345 10.9936 12.2353 11.1885 12.3586 11.4253C12.4512 11.6032 12.479 11.7758 12.4903 11.9084C12.5001 12.0243 12.5 12.1577 12.5 12.2794L12.5 14.0686C12.5 14.111 12.5 14.1512 12.5001 14.1891C12.5269 14.1623 12.5553 14.1339 12.5854 14.1039L18.1893 8.49993L12.5854 2.89595C12.5553 2.86592 12.5269 2.83756 12.5001 2.81074ZM11.2995 1.39523C11.5594 1.09097 11.9492 0.929497 12.3481 0.960891C12.6925 0.988001 12.9495 1.18732 13.0922 1.30681C13.2482 1.43736 13.4289 1.61813 13.6242 1.81351L19.7803 7.9696C20.0732 8.26249 20.0732 8.73737 19.7803 9.03026L13.6242 15.1863C13.4289 15.3817 13.2482 15.5625 13.0922 15.693C12.9495 15.8125 12.6925 16.0119 12.3481 16.039C11.9492 16.0704 11.5594 15.9089 11.2995 15.6046C11.0751 15.3419 11.0343 15.0193 11.0179 14.8338C11 14.6313 11 14.3756 11 14.0994L11 12.2999C11 12.2861 11 12.273 11 12.2604C10.9902 12.2607 10.9802 12.261 10.9697 12.2613C8.01273 12.3498 6.22162 12.9477 4.9194 13.8133C3.60853 14.6846 2.72439 15.8653 1.62592 17.3322L1.59021 17.3799C1.0814 18.0593 0 17.7002 0 16.8505V16.6248C0 10.3747 4.83431 5.23261 11 4.78198L11 2.9005C11 2.62422 11 2.3686 11.0179 2.16603C11.0343 1.98061 11.0751 1.65797 11.2995 1.39523Z" fill="#080808" fill-opacity="0.96"/>
</svg>
